{
  "asset": {
    "generator": "Khronos glTF Blender I/O v4.1.62",
    "version": "2.0"
  },
  "scene": 0,
  "scenes": [
    {
      "name": "Scene",
      "nodes": [
        0
      ]
    }
  ],
  "nodes": [
    {
      "mesh": 0,
      "name": "Football_Shirt"
    }
  ],
  "materials": [
    {
      "doubleSided": true,
      "name": "stripes",
      "pbrMetallicRoughness": {
        "baseColorTexture": {
          "index": 0,
          "texCoord": 0
        },
        "metallicFactor": 0,
        "baseColorFactor": [
          1,
          1,
          1,
          1
        ],
        "roughnessFactor": 1
      },
      "emissiveFactor": [
        0,
        0,
        0
      ],
      "alphaMode": "OPAQUE"
    },
    {
      "doubleSided": true,
      "name": "stripes2",
      "pbrMetallicRoughness": {
        "metallicFactor": 0,
        "roughnessFactor": 0.5,
        "baseColorFactor": [
          1,
          1,
          1,
          1
        ]
      },
      "emissiveFactor": [
        0,
        0,
        0
      ],
      "alphaMode": "OPAQUE"
    },
    {
      "doubleSided": true,
      "name": "ribbing",
      "pbrMetallicRoughness": {
        "metallicFactor": 0,
        "baseColorFactor": [
          1,
          1,
          1,
          1
        ],
        "roughnessFactor": 1
      },
      "emissiveFactor": [
        0,
        0,
        0
      ],
      "alphaMode": "OPAQUE"
    }
  ],
  "meshes": [
    {
      "name": "Cube.090",
      "primitives": [
        {
          "attributes": {
            "POSITION": 0,
            "NORMAL": 1,
            "TEXCOORD_0": 2,
            "TEXCOORD_1": 3
          },
          "indices": 4,
          "material": 0,
          "mode": 4
        },
        {
          "attributes": {
            "POSITION": 5,
            "NORMAL": 6,
            "TEXCOORD_0": 7,
            "TEXCOORD_1": 8
          },
          "indices": 9,
          "material": 1,
          "mode": 4
        },
        {
          "attributes": {
            "POSITION": 10,
            "NORMAL": 11,
            "TEXCOORD_0": 12,
            "TEXCOORD_1": 13
          },
          "indices": 14,
          "material": 2,
          "mode": 4
        }
      ]
    }
  ],
  "textures": [
    {
      "sampler": 0,
      "source": 0
    }
  ],
  "images": [
    {
      "mimeType": "image/png",
      "name": "jerseyMiladyLogo(uvmapped)",
      "uri": "jerseyMiladyLogo(uvmapped).png"
    }
  ],
  "accessors": [
    {
      "bufferView": 0,
      "componentType": 5126,
      "count": 126,
      "max": [
        0.2772293984889984,
        0.45999106764793396,
        0.21286556124687195
      ],
      "min": [
        -0.27465692162513733,
        0.1278427541255951,
        -0.17729264497756958
      ],
      "type": "VEC3",
      "byteOffset": 0
    },
    {
      "bufferView": 1,
      "componentType": 5126,
      "count": 126,
      "type": "VEC3",
      "byteOffset": 0
    },
    {
      "bufferView": 2,
      "componentType": 5126,
      "count": 126,
      "type": "VEC2",
      "byteOffset": 0
    },
    {
      "bufferView": 3,
      "componentType": 5126,
      "count": 126,
      "type": "VEC2",
      "byteOffset": 0
    },
    {
      "bufferView": 4,
      "componentType": 5123,
      "count": 552,
      "type": "SCALAR",
      "byteOffset": 0
    },
    {
      "bufferView": 5,
      "componentType": 5126,
      "count": 72,
      "max": [
        0.3050931394100189,
        0.4413526952266693,
        0.09782573580741882
      ],
      "min": [
        -0.3055553436279297,
        0.2249162495136261,
        -0.06376802921295166
      ],
      "type": "VEC3",
      "byteOffset": 0
    },
    {
      "bufferView": 6,
      "componentType": 5126,
      "count": 72,
      "type": "VEC3",
      "byteOffset": 0
    },
    {
      "bufferView": 7,
      "componentType": 5126,
      "count": 72,
      "type": "VEC2",
      "byteOffset": 0
    },
    {
      "bufferView": 8,
      "componentType": 5126,
      "count": 72,
      "type": "VEC2",
      "byteOffset": 0
    },
    {
      "bufferView": 9,
      "componentType": 5123,
      "count": 288,
      "type": "SCALAR",
      "byteOffset": 0
    },
    {
      "bufferView": 10,
      "componentType": 5126,
      "count": 100,
      "max": [
        0.3203871250152588,
        0.47082260251045227,
        0.11657658219337463
      ],
      "min": [
        -0.3207184076309204,
        0.22243934869766235,
        -0.0919533371925354
      ],
      "type": "VEC3",
      "byteOffset": 0
    },
    {
      "bufferView": 11,
      "componentType": 5126,
      "count": 100,
      "type": "VEC3",
      "byteOffset": 0
    },
    {
      "bufferView": 12,
      "componentType": 5126,
      "count": 100,
      "type": "VEC2",
      "byteOffset": 0
    },
    {
      "bufferView": 13,
      "componentType": 5126,
      "count": 100,
      "type": "VEC2",
      "byteOffset": 0
    },
    {
      "bufferView": 14,
      "componentType": 5123,
      "count": 264,
      "type": "SCALAR",
      "byteOffset": 0
    }
  ],
  "bufferViews": [
    {
      "buffer": 0,
      "byteLength": 1512,
      "byteOffset": 0,
      "target": 34962,
      "byteStride": 12
    },
    {
      "buffer": 0,
      "byteLength": 1512,
      "byteOffset": 1512,
      "target": 34962,
      "byteStride": 12
    },
    {
      "buffer": 0,
      "byteLength": 1008,
      "byteOffset": 3024,
      "target": 34962,
      "byteStride": 8
    },
    {
      "buffer": 0,
      "byteLength": 1008,
      "byteOffset": 4032,
      "target": 34962,
      "byteStride": 8
    },
    {
      "buffer": 0,
      "byteLength": 1104,
      "byteOffset": 5040,
      "target": 34963
    },
    {
      "buffer": 0,
      "byteLength": 864,
      "byteOffset": 6144,
      "target": 34962,
      "byteStride": 12
    },
    {
      "buffer": 0,
      "byteLength": 864,
      "byteOffset": 7008,
      "target": 34962,
      "byteStride": 12
    },
    {
      "buffer": 0,
      "byteLength": 576,
      "byteOffset": 7872,
      "target": 34962,
      "byteStride": 8
    },
    {
      "buffer": 0,
      "byteLength": 576,
      "byteOffset": 8448,
      "target": 34962,
      "byteStride": 8
    },
    {
      "buffer": 0,
      "byteLength": 576,
      "byteOffset": 9024,
      "target": 34963
    },
    {
      "buffer": 0,
      "byteLength": 1200,
      "byteOffset": 9600,
      "target": 34962,
      "byteStride": 12
    },
    {
      "buffer": 0,
      "byteLength": 1200,
      "byteOffset": 10800,
      "target": 34962,
      "byteStride": 12
    },
    {
      "buffer": 0,
      "byteLength": 800,
      "byteOffset": 12000,
      "target": 34962,
      "byteStride": 8
    },
    {
      "buffer": 0,
      "byteLength": 800,
      "byteOffset": 12800,
      "target": 34962,
      "byteStride": 8
    },
    {
      "buffer": 0,
      "byteLength": 528,
      "byteOffset": 13600,
      "target": 34963
    }
  ],
  "samplers": [
    {
      "magFilter": 9729,
      "minFilter": 9987,
      "wrapS": 10497,
      "wrapT": 10497
    }
  ],
  "buffers": [
    {
      "name": "Football_Shirt",
      "byteLength": 14128,
      "uri": "Football_Shirt.bin"
    }
  ]
}
