{
  "asset": {
    "generator": "Khronos glTF Blender I/O v4.1.62",
    "version": "2.0"
  },
  "extensionsUsed": [
    "KHR_materials_specular",
    "KHR_materials_ior"
  ],
  "scene": 0,
  "scenes": [
    {
      "name": "Scene",
      "nodes": [
        0
      ]
    }
  ],
  "nodes": [
    {
      "mesh": 0,
      "name": "Mape_Hoodie"
    }
  ],
  "materials": [
    {
      "doubleSided": true,
      "emissiveFactor": [
        1,
        1,
        1
      ],
      "emissiveTexture": {
        "index": 0,
        "texCoord": 0
      },
      "extensions": {
        "KHR_materials_specular": {
          "specularFactor": 0
        },
        "KHR_materials_ior": {
          "ior": 1.4500000476837158
        }
      },
      "name": "MapeHoodie",
      "normalTexture": {
        "index": 1,
        "texCoord": 0
      },
      "pbrMetallicRoughness": {
        "baseColorTexture": {
          "index": 2,
          "texCoord": 0
        },
        "metallicRoughnessTexture": {
          "index": 3,
          "texCoord": 0
        },
        "baseColorFactor": [
          1,
          1,
          1,
          1
        ],
        "metallicFactor": 1,
        "roughnessFactor": 1
      },
      "alphaMode": "OPAQUE"
    },
    {
      "doubleSided": true,
      "emissiveFactor": [
        1,
        1,
        1
      ],
      "emissiveTexture": {
        "index": 4,
        "texCoord": 0
      },
      "name": "Tshirt",
      "normalTexture": {
        "index": 5,
        "texCoord": 0
      },
      "pbrMetallicRoughness": {
        "baseColorTexture": {
          "index": 6,
          "texCoord": 0
        },
        "metallicRoughnessTexture": {
          "index": 7,
          "texCoord": 0
        },
        "baseColorFactor": [
          1,
          1,
          1,
          1
        ],
        "metallicFactor": 1,
        "roughnessFactor": 1
      },
      "alphaMode": "OPAQUE"
    }
  ],
  "meshes": [
    {
      "name": "Cube.029",
      "primitives": [
        {
          "attributes": {
            "POSITION": 0,
            "NORMAL": 1,
            "TEXCOORD_0": 2,
            "TEXCOORD_1": 3
          },
          "indices": 4,
          "material": 0,
          "mode": 4
        },
        {
          "attributes": {
            "POSITION": 5,
            "NORMAL": 6,
            "TEXCOORD_0": 7,
            "TEXCOORD_1": 8
          },
          "indices": 9,
          "material": 1,
          "mode": 4
        }
      ]
    }
  ],
  "textures": [
    {
      "sampler": 0,
      "source": 0
    },
    {
      "sampler": 0,
      "source": 1
    },
    {
      "sampler": 0,
      "source": 2
    },
    {
      "sampler": 0,
      "source": 3
    },
    {
      "sampler": 0,
      "source": 4
    },
    {
      "sampler": 0,
      "source": 5
    },
    {
      "sampler": 0,
      "source": 6
    },
    {
      "sampler": 0,
      "source": 7
    }
  ],
  "images": [
    {
      "mimeType": "image/png",
      "name": "MapeHoodie_Emission",
      "uri": "MapeHoodie_Emission.png"
    },
    {
      "mimeType": "image/png",
      "name": "MapeHoodie_Normal",
      "uri": "MapeHoodie_Normal.png"
    },
    {
      "mimeType": "image/png",
      "name": "MapeHoodie_BaseColor-MapeHoodie_Alpha",
      "uri": "MapeHoodie_BaseColor-MapeHoodie_Alpha.png"
    },
    {
      "mimeType": "image/png",
      "name": "MapeHoodie_Metallic-MapeHoodie_Roughness",
      "uri": "MapeHoodie_Metallic-MapeHoodie_Roughness.png"
    },
    {
      "mimeType": "image/png",
      "name": "Tshirt_mape_Emission",
      "uri": "Tshirt_mape_Emission.png"
    },
    {
      "mimeType": "image/png",
      "name": "Tshirt_mape_Normal",
      "uri": "Tshirt_mape_Normal.png"
    },
    {
      "mimeType": "image/png",
      "name": "Tshirt_mape_BaseColor-Tshirt_mape_Alpha",
      "uri": "Tshirt_mape_BaseColor-Tshirt_mape_Alpha.png"
    },
    {
      "mimeType": "image/png",
      "name": "Tshirt_mape_Metallic-Tshirt_mape_Roughness",
      "uri": "Tshirt_mape_Metallic-Tshirt_mape_Roughness.png"
    }
  ],
  "accessors": [
    {
      "bufferView": 0,
      "componentType": 5126,
      "count": 1163,
      "max": [
        0.4994756579399109,
        0.5403478145599365,
        0.20601055026054382
      ],
      "min": [
        -0.4994756579399109,
        0.09153885394334793,
        -0.30961745977401733
      ],
      "type": "VEC3",
      "byteOffset": 0
    },
    {
      "bufferView": 1,
      "componentType": 5126,
      "count": 1163,
      "type": "VEC3",
      "byteOffset": 0
    },
    {
      "bufferView": 2,
      "componentType": 5126,
      "count": 1163,
      "type": "VEC2",
      "byteOffset": 0
    },
    {
      "bufferView": 3,
      "componentType": 5126,
      "count": 1163,
      "type": "VEC2",
      "byteOffset": 0
    },
    {
      "bufferView": 4,
      "componentType": 5123,
      "count": 4596,
      "type": "SCALAR",
      "byteOffset": 0
    },
    {
      "bufferView": 5,
      "componentType": 5126,
      "count": 166,
      "max": [
        0.2749081552028656,
        0.46833792328834534,
        0.20342595875263214
      ],
      "min": [
        -0.27566930651664734,
        0.13777564465999603,
        -0.18702085316181183
      ],
      "type": "VEC3",
      "byteOffset": 0
    },
    {
      "bufferView": 6,
      "componentType": 5126,
      "count": 166,
      "type": "VEC3",
      "byteOffset": 0
    },
    {
      "bufferView": 7,
      "componentType": 5126,
      "count": 166,
      "type": "VEC2",
      "byteOffset": 0
    },
    {
      "bufferView": 8,
      "componentType": 5126,
      "count": 166,
      "type": "VEC2",
      "byteOffset": 0
    },
    {
      "bufferView": 9,
      "componentType": 5123,
      "count": 792,
      "type": "SCALAR",
      "byteOffset": 0
    }
  ],
  "bufferViews": [
    {
      "buffer": 0,
      "byteLength": 13956,
      "byteOffset": 0,
      "target": 34962,
      "byteStride": 12
    },
    {
      "buffer": 0,
      "byteLength": 13956,
      "byteOffset": 13960,
      "target": 34962,
      "byteStride": 12
    },
    {
      "buffer": 0,
      "byteLength": 9304,
      "byteOffset": 27920,
      "target": 34962,
      "byteStride": 8
    },
    {
      "buffer": 0,
      "byteLength": 9304,
      "byteOffset": 37224,
      "target": 34962,
      "byteStride": 8
    },
    {
      "buffer": 0,
      "byteLength": 9192,
      "byteOffset": 46528,
      "target": 34963
    },
    {
      "buffer": 0,
      "byteLength": 1992,
      "byteOffset": 55720,
      "target": 34962,
      "byteStride": 12
    },
    {
      "buffer": 0,
      "byteLength": 1992,
      "byteOffset": 57712,
      "target": 34962,
      "byteStride": 12
    },
    {
      "buffer": 0,
      "byteLength": 1328,
      "byteOffset": 59704,
      "target": 34962,
      "byteStride": 8
    },
    {
      "buffer": 0,
      "byteLength": 1328,
      "byteOffset": 61032,
      "target": 34962,
      "byteStride": 8
    },
    {
      "buffer": 0,
      "byteLength": 1584,
      "byteOffset": 62360,
      "target": 34963
    }
  ],
  "samplers": [
    {
      "magFilter": 9729,
      "minFilter": 9987,
      "wrapS": 10497,
      "wrapT": 10497
    }
  ],
  "buffers": [
    {
      "name": "Mape_Hoodie",
      "byteLength": 63944,
      "uri": "Mape_Hoodie.bin"
    }
  ]
}
