{
  "asset": {
    "generator": "Khronos glTF Blender I/O v4.1.62",
    "version": "2.0"
  },
  "scene": 0,
  "scenes": [
    {
      "name": "Scene",
      "nodes": [
        0
      ]
    }
  ],
  "nodes": [
    {
      "mesh": 0,
      "name": "Workin_Cap"
    }
  ],
  "materials": [
    {
      "doubleSided": true,
      "emissiveFactor": [
        1,
        1,
        1
      ],
      "emissiveTexture": {
        "index": 0,
        "texCoord": 0
      },
      "name": "Material.001",
      "normalTexture": {
        "index": 1,
        "texCoord": 0
      },
      "pbrMetallicRoughness": {
        "baseColorTexture": {
          "index": 2,
          "texCoord": 0
        },
        "metallicRoughnessTexture": {
          "index": 3,
          "texCoord": 0
        },
        "baseColorFactor": [
          1,
          1,
          1,
          1
        ],
        "metallicFactor": 1,
        "roughnessFactor": 1
      },
      "alphaMode": "OPAQUE"
    },
    {
      "alphaCutoff": 0.5,
      "alphaMode": "MASK",
      "doubleSided": true,
      "name": "Material.031",
      "normalTexture": {
        "index": 4,
        "texCoord": 0
      },
      "pbrMetallicRoughness": {
        "baseColorTexture": {
          "index": 5,
          "texCoord": 0
        },
        "metallicRoughnessTexture": {
          "index": 6,
          "texCoord": 0
        },
        "baseColorFactor": [
          1,
          1,
          1,
          1
        ],
        "metallicFactor": 1,
        "roughnessFactor": 1
      },
      "emissiveFactor": [
        0,
        0,
        0
      ]
    }
  ],
  "meshes": [
    {
      "name": "1hat_trucker.001",
      "primitives": [
        {
          "attributes": {
            "POSITION": 0,
            "NORMAL": 1,
            "TEXCOORD_0": 2
          },
          "indices": 3,
          "material": 0,
          "mode": 4
        },
        {
          "attributes": {
            "POSITION": 4,
            "NORMAL": 5,
            "TEXCOORD_0": 6
          },
          "indices": 7,
          "material": 1,
          "mode": 4
        }
      ]
    }
  ],
  "textures": [
    {
      "sampler": 0,
      "source": 0
    },
    {
      "sampler": 0,
      "source": 1
    },
    {
      "sampler": 0,
      "source": 2
    },
    {
      "sampler": 0,
      "source": 3
    },
    {
      "sampler": 0,
      "source": 4
    },
    {
      "sampler": 0,
      "source": 5
    },
    {
      "sampler": 0,
      "source": 6
    }
  ],
  "images": [
    {
      "mimeType": "image/png",
      "name": "Working_Dog_Emission",
      "uri": "Working_Dog_Emission.png"
    },
    {
      "mimeType": "image/png",
      "name": "Working_Dog_Normal",
      "uri": "Working_Dog_Normal.png"
    },
    {
      "mimeType": "image/png",
      "name": "Working_Dog_BaseColor.png-Working_Dog_Alpha",
      "uri": "Working_Dog_BaseColor.png-Working_Dog_Alpha.png"
    },
    {
      "mimeType": "image/png",
      "name": "Working_Dog_Metallic-Working_Dog_Roughness",
      "uri": "Working_Dog_Metallic-Working_Dog_Roughness.png"
    },
    {
      "mimeType": "image/png",
      "name": "Working_Dog_Mesh_Normal",
      "uri": "Working_Dog_Mesh_Normal.png"
    },
    {
      "mimeType": "image/png",
      "name": "Working_Dog_Mesh_BaseColor-Working_Dog_Mesh_Alpha.png",
      "uri": "Working_Dog_Mesh_BaseColor-Working_Dog_Mesh_Alpha.png.png"
    },
    {
      "mimeType": "image/png",
      "name": "Working_Dog_Mesh_Metallic-Working_Dog_Mesh_Roughness",
      "uri": "Working_Dog_Mesh_Metallic-Working_Dog_Mesh_Roughness.png"
    }
  ],
  "accessors": [
    {
      "bufferView": 0,
      "componentType": 5126,
      "count": 1047,
      "max": [
        0.5436546206474304,
        1.5873161554336548,
        0.754263162612915
      ],
      "min": [
        -0.612467885017395,
        0.9145252704620361,
        -0.5105966329574585
      ],
      "type": "VEC3",
      "byteOffset": 0
    },
    {
      "bufferView": 1,
      "componentType": 5126,
      "count": 1047,
      "type": "VEC3",
      "byteOffset": 0
    },
    {
      "bufferView": 2,
      "componentType": 5126,
      "count": 1047,
      "type": "VEC2",
      "byteOffset": 0
    },
    {
      "bufferView": 3,
      "componentType": 5123,
      "count": 3528,
      "type": "SCALAR",
      "byteOffset": 0
    },
    {
      "bufferView": 4,
      "componentType": 5126,
      "count": 80,
      "max": [
        0.5423193573951721,
        1.546129822731018,
        0.2883776128292084
      ],
      "min": [
        -0.5235017538070679,
        1.0119900703430176,
        -0.5030813813209534
      ],
      "type": "VEC3",
      "byteOffset": 0
    },
    {
      "bufferView": 5,
      "componentType": 5126,
      "count": 80,
      "type": "VEC3",
      "byteOffset": 0
    },
    {
      "bufferView": 6,
      "componentType": 5126,
      "count": 80,
      "type": "VEC2",
      "byteOffset": 0
    },
    {
      "bufferView": 7,
      "componentType": 5123,
      "count": 276,
      "type": "SCALAR",
      "byteOffset": 0
    }
  ],
  "bufferViews": [
    {
      "buffer": 0,
      "byteLength": 12564,
      "byteOffset": 0,
      "target": 34962,
      "byteStride": 12
    },
    {
      "buffer": 0,
      "byteLength": 12564,
      "byteOffset": 12568,
      "target": 34962,
      "byteStride": 12
    },
    {
      "buffer": 0,
      "byteLength": 8376,
      "byteOffset": 25136,
      "target": 34962,
      "byteStride": 8
    },
    {
      "buffer": 0,
      "byteLength": 7056,
      "byteOffset": 33512,
      "target": 34963
    },
    {
      "buffer": 0,
      "byteLength": 960,
      "byteOffset": 40568,
      "target": 34962,
      "byteStride": 12
    },
    {
      "buffer": 0,
      "byteLength": 960,
      "byteOffset": 41528,
      "target": 34962,
      "byteStride": 12
    },
    {
      "buffer": 0,
      "byteLength": 640,
      "byteOffset": 42488,
      "target": 34962,
      "byteStride": 8
    },
    {
      "buffer": 0,
      "byteLength": 552,
      "byteOffset": 43128,
      "target": 34963
    }
  ],
  "samplers": [
    {
      "magFilter": 9729,
      "minFilter": 9987,
      "wrapS": 10497,
      "wrapT": 10497
    }
  ],
  "buffers": [
    {
      "name": "Workin_Cap",
      "byteLength": 43680,
      "uri": "Workin_Cap.bin"
    }
  ]
}
