{
  "asset": {
    "generator": "Khronos glTF Blender I/O v4.1.62",
    "version": "2.0"
  },
  "scene": 0,
  "scenes": [
    {
      "name": "Scene",
      "nodes": [
        0
      ]
    }
  ],
  "nodes": [
    {
      "mesh": 0,
      "name": "Gray_Jeans"
    }
  ],
  "materials": [
    {
      "doubleSided": true,
      "emissiveFactor": [
        1,
        1,
        1
      ],
      "emissiveTexture": {
        "index": 0,
        "texCoord": 0
      },
      "name": "gray_jeans_substance",
      "normalTexture": {
        "index": 1,
        "texCoord": 0
      },
      "pbrMetallicRoughness": {
        "baseColorTexture": {
          "index": 2,
          "texCoord": 0
        },
        "metallicRoughnessTexture": {
          "index": 3,
          "texCoord": 0
        },
        "baseColorFactor": [
          1,
          1,
          1,
          1
        ],
        "metallicFactor": 1,
        "roughnessFactor": 1
      },
      "alphaMode": "OPAQUE"
    },
    {
      "doubleSided": true,
      "emissiveFactor": [
        1,
        1,
        1
      ],
      "emissiveTexture": {
        "index": 4,
        "texCoord": 0
      },
      "name": "Material.029",
      "normalTexture": {
        "index": 5,
        "texCoord": 0
      },
      "pbrMetallicRoughness": {
        "baseColorTexture": {
          "index": 6,
          "texCoord": 0
        },
        "metallicRoughnessTexture": {
          "index": 7,
          "texCoord": 0
        },
        "baseColorFactor": [
          1,
          1,
          1,
          1
        ],
        "metallicFactor": 1,
        "roughnessFactor": 1
      },
      "alphaMode": "OPAQUE"
    }
  ],
  "meshes": [
    {
      "name": "body_base.088",
      "primitives": [
        {
          "attributes": {
            "POSITION": 0,
            "NORMAL": 1,
            "TEXCOORD_0": 2,
            "TEXCOORD_1": 3
          },
          "indices": 4,
          "material": 0,
          "mode": 4
        },
        {
          "attributes": {
            "POSITION": 5,
            "NORMAL": 6,
            "TEXCOORD_0": 7,
            "TEXCOORD_1": 8
          },
          "indices": 9,
          "material": 1,
          "mode": 4
        }
      ]
    }
  ],
  "textures": [
    {
      "sampler": 0,
      "source": 0
    },
    {
      "sampler": 0,
      "source": 1
    },
    {
      "sampler": 0,
      "source": 2
    },
    {
      "sampler": 0,
      "source": 3
    },
    {
      "sampler": 0,
      "source": 4
    },
    {
      "sampler": 0,
      "source": 5
    },
    {
      "sampler": 0,
      "source": 6
    },
    {
      "sampler": 0,
      "source": 7
    }
  ],
  "images": [
    {
      "mimeType": "image/jpeg",
      "name": "gray_jeans_Emission",
      "uri": "gray_jeans_Emission.jpg"
    },
    {
      "mimeType": "image/jpeg",
      "name": "gray_jeans_Normal",
      "uri": "gray_jeans_Normal.jpg"
    },
    {
      "mimeType": "image/png",
      "name": "gray_jeans_BaseColor-gray_jeans_Alpha",
      "uri": "gray_jeans_BaseColor-gray_jeans_Alpha.png"
    },
    {
      "mimeType": "image/png",
      "name": "gray_jeans_Metallic-gray_jeans_Roughness",
      "uri": "gray_jeans_Metallic-gray_jeans_Roughness.png"
    },
    {
      "mimeType": "image/jpeg",
      "name": "material_1.001_Emission",
      "uri": "material_1.001_Emission.jpg"
    },
    {
      "mimeType": "image/jpeg",
      "name": "material_1.001_Normal",
      "uri": "material_1.001_Normal.jpg"
    },
    {
      "mimeType": "image/jpeg",
      "name": "material_1.001_BaseColor",
      "uri": "material_1.001_BaseColor.jpg"
    },
    {
      "mimeType": "image/png",
      "name": "material_1.001_Metallic-material_1.001_Roughness",
      "uri": "material_1.001_Metallic-material_1.001_Roughness.png"
    }
  ],
  "accessors": [
    {
      "bufferView": 0,
      "componentType": 5126,
      "count": 242,
      "max": [
        0.2987421154975891,
        0.15924538671970367,
        0.4154435396194458
      ],
      "min": [
        -0.29607081413269043,
        -0.177255779504776,
        -0.1737131029367447
      ],
      "type": "VEC3",
      "byteOffset": 0
    },
    {
      "bufferView": 1,
      "componentType": 5126,
      "count": 242,
      "type": "VEC3",
      "byteOffset": 0
    },
    {
      "bufferView": 2,
      "componentType": 5126,
      "count": 242,
      "type": "VEC2",
      "byteOffset": 0
    },
    {
      "bufferView": 3,
      "componentType": 5126,
      "count": 242,
      "type": "VEC2",
      "byteOffset": 0
    },
    {
      "bufferView": 4,
      "componentType": 5123,
      "count": 1176,
      "type": "SCALAR",
      "byteOffset": 0
    },
    {
      "bufferView": 5,
      "componentType": 5126,
      "count": 1586,
      "max": [
        -0.18828897178173065,
        0.15131384134292603,
        0.10291563719511032
      ],
      "min": [
        -0.381797730922699,
        -0.00864139199256897,
        -0.13100533187389374
      ],
      "type": "VEC3",
      "byteOffset": 0
    },
    {
      "bufferView": 6,
      "componentType": 5126,
      "count": 1586,
      "type": "VEC3",
      "byteOffset": 0
    },
    {
      "bufferView": 7,
      "componentType": 5126,
      "count": 1586,
      "type": "VEC2",
      "byteOffset": 0
    },
    {
      "bufferView": 8,
      "componentType": 5126,
      "count": 1586,
      "type": "VEC2",
      "byteOffset": 0
    },
    {
      "bufferView": 9,
      "componentType": 5123,
      "count": 4116,
      "type": "SCALAR",
      "byteOffset": 0
    }
  ],
  "bufferViews": [
    {
      "buffer": 0,
      "byteLength": 2904,
      "byteOffset": 0,
      "target": 34962,
      "byteStride": 12
    },
    {
      "buffer": 0,
      "byteLength": 2904,
      "byteOffset": 2904,
      "target": 34962,
      "byteStride": 12
    },
    {
      "buffer": 0,
      "byteLength": 1936,
      "byteOffset": 5808,
      "target": 34962,
      "byteStride": 8
    },
    {
      "buffer": 0,
      "byteLength": 1936,
      "byteOffset": 7744,
      "target": 34962,
      "byteStride": 8
    },
    {
      "buffer": 0,
      "byteLength": 2352,
      "byteOffset": 9680,
      "target": 34963
    },
    {
      "buffer": 0,
      "byteLength": 19032,
      "byteOffset": 12032,
      "target": 34962,
      "byteStride": 12
    },
    {
      "buffer": 0,
      "byteLength": 19032,
      "byteOffset": 31064,
      "target": 34962,
      "byteStride": 12
    },
    {
      "buffer": 0,
      "byteLength": 12688,
      "byteOffset": 50096,
      "target": 34962,
      "byteStride": 8
    },
    {
      "buffer": 0,
      "byteLength": 12688,
      "byteOffset": 62784,
      "target": 34962,
      "byteStride": 8
    },
    {
      "buffer": 0,
      "byteLength": 8232,
      "byteOffset": 75472,
      "target": 34963
    }
  ],
  "samplers": [
    {
      "magFilter": 9729,
      "minFilter": 9987,
      "wrapS": 10497,
      "wrapT": 10497
    }
  ],
  "buffers": [
    {
      "name": "Gray_Jeans",
      "byteLength": 83704,
      "uri": "Gray_Jeans.bin"
    }
  ]
}
