{
  "asset": {
    "generator": "Khronos glTF Blender I/O v4.1.62",
    "version": "2.0"
  },
  "extensionsUsed": [
    "KHR_materials_specular",
    "KHR_materials_ior"
  ],
  "scene": 0,
  "scenes": [
    {
      "name": "Scene",
      "nodes": [
        0
      ]
    }
  ],
  "nodes": [
    {
      "mesh": 0,
      "name": "Remilio_Lilac"
    }
  ],
  "materials": [
    {
      "alphaMode": "BLEND",
      "doubleSided": true,
      "extensions": {
        "KHR_materials_specular": {
          "specularFactor": 0
        },
        "KHR_materials_ior": {
          "ior": 1.4500000476837158
        }
      },
      "name": "Remilio_Lilac",
      "pbrMetallicRoughness": {
        "baseColorTexture": {
          "index": 0,
          "texCoord": 0
        },
        "metallicFactor": 0,
        "roughnessFactor": 0.5,
        "baseColorFactor": [
          1,
          1,
          1,
          1
        ]
      },
      "emissiveFactor": [
        0,
        0,
        0
      ]
    }
  ],
  "meshes": [
    {
      "name": "eyes1.004",
      "primitives": [
        {
          "attributes": {
            "POSITION": 0,
            "NORMAL": 1,
            "TEXCOORD_0": 2
          },
          "indices": 3,
          "material": 0,
          "mode": 4
        }
      ]
    }
  ],
  "textures": [
    {
      "sampler": 0,
      "source": 0
    }
  ],
  "images": [
    {
      "mimeType": "image/png",
      "name": "_0013_remilio_lilac",
      "uri": "_0013_remilio_lilac.png"
    }
  ],
  "accessors": [
    {
      "bufferView": 0,
      "componentType": 5126,
      "count": 578,
      "max": [
        0.4413573741912842,
        1.1451317071914673,
        0.3434986472129822
      ],
      "min": [
        -0.4413573741912842,
        0.5212146043777466,
        -0.057439424097537994
      ],
      "type": "VEC3",
      "byteOffset": 0
    },
    {
      "bufferView": 1,
      "componentType": 5126,
      "count": 578,
      "type": "VEC3",
      "byteOffset": 0
    },
    {
      "bufferView": 2,
      "componentType": 5126,
      "count": 578,
      "type": "VEC2",
      "byteOffset": 0
    },
    {
      "bufferView": 3,
      "componentType": 5123,
      "count": 3072,
      "type": "SCALAR",
      "byteOffset": 0
    }
  ],
  "bufferViews": [
    {
      "buffer": 0,
      "byteLength": 6936,
      "byteOffset": 0,
      "target": 34962,
      "byteStride": 12
    },
    {
      "buffer": 0,
      "byteLength": 6936,
      "byteOffset": 6936,
      "target": 34962,
      "byteStride": 12
    },
    {
      "buffer": 0,
      "byteLength": 4624,
      "byteOffset": 13872,
      "target": 34962,
      "byteStride": 8
    },
    {
      "buffer": 0,
      "byteLength": 6144,
      "byteOffset": 18496,
      "target": 34963
    }
  ],
  "samplers": [
    {
      "magFilter": 9729,
      "minFilter": 9987,
      "wrapS": 33071,
      "wrapT": 33071
    }
  ],
  "buffers": [
    {
      "name": "Remilio_Lilac",
      "byteLength": 24640,
      "uri": "Remilio_Lilac.bin"
    }
  ]
}
