{
  "asset": {
    "generator": "Khronos glTF Blender I/O v4.1.62",
    "version": "2.0"
  },
  "extensionsUsed": [
    "KHR_materials_specular",
    "KHR_materials_ior"
  ],
  "scene": 0,
  "scenes": [
    {
      "name": "Scene",
      "nodes": [
        0
      ]
    }
  ],
  "nodes": [
    {
      "mesh": 0,
      "name": "Orange_Berret"
    }
  ],
  "materials": [
    {
      "doubleSided": true,
      "emissiveFactor": [
        1,
        1,
        1
      ],
      "emissiveTexture": {
        "index": 0,
        "texCoord": 0
      },
      "name": "leafs",
      "normalTexture": {
        "index": 1,
        "texCoord": 0
      },
      "pbrMetallicRoughness": {
        "baseColorTexture": {
          "index": 2,
          "texCoord": 0
        },
        "metallicRoughnessTexture": {
          "index": 3,
          "texCoord": 0
        },
        "baseColorFactor": [
          1,
          1,
          1,
          1
        ],
        "metallicFactor": 1,
        "roughnessFactor": 1
      },
      "alphaMode": "OPAQUE"
    },
    {
      "doubleSided": true,
      "emissiveFactor": [
        1,
        1,
        1
      ],
      "emissiveTexture": {
        "index": 4,
        "texCoord": 0
      },
      "extensions": {
        "KHR_materials_specular": {
          "specularFactor": 0.17121589183807373
        },
        "KHR_materials_ior": {
          "ior": 1.4500000476837158
        }
      },
      "name": "orange",
      "normalTexture": {
        "index": 5,
        "texCoord": 0
      },
      "pbrMetallicRoughness": {
        "baseColorTexture": {
          "index": 6,
          "texCoord": 0
        },
        "metallicRoughnessTexture": {
          "index": 7,
          "texCoord": 0
        },
        "baseColorFactor": [
          1,
          1,
          1,
          1
        ],
        "metallicFactor": 1,
        "roughnessFactor": 1
      },
      "alphaMode": "OPAQUE"
    },
    {
      "doubleSided": true,
      "emissiveFactor": [
        1,
        1,
        1
      ],
      "emissiveTexture": {
        "index": 8,
        "texCoord": 0
      },
      "name": "brim",
      "normalTexture": {
        "index": 9,
        "texCoord": 0
      },
      "pbrMetallicRoughness": {
        "baseColorTexture": {
          "index": 10,
          "texCoord": 0
        },
        "metallicRoughnessTexture": {
          "index": 11,
          "texCoord": 0
        },
        "baseColorFactor": [
          1,
          1,
          1,
          1
        ],
        "metallicFactor": 1,
        "roughnessFactor": 1
      },
      "alphaMode": "OPAQUE"
    }
  ],
  "meshes": [
    {
      "name": "mesh.005",
      "primitives": [
        {
          "attributes": {
            "POSITION": 0,
            "NORMAL": 1,
            "TEXCOORD_0": 2
          },
          "indices": 3,
          "material": 0,
          "mode": 4
        },
        {
          "attributes": {
            "POSITION": 4,
            "NORMAL": 5,
            "TEXCOORD_0": 6
          },
          "indices": 7,
          "material": 1,
          "mode": 4
        },
        {
          "attributes": {
            "POSITION": 8,
            "NORMAL": 9,
            "TEXCOORD_0": 10
          },
          "indices": 11,
          "material": 2,
          "mode": 4
        }
      ]
    }
  ],
  "textures": [
    {
      "sampler": 0,
      "source": 0
    },
    {
      "sampler": 0,
      "source": 1
    },
    {
      "sampler": 0,
      "source": 2
    },
    {
      "sampler": 0,
      "source": 3
    },
    {
      "sampler": 0,
      "source": 4
    },
    {
      "sampler": 0,
      "source": 5
    },
    {
      "sampler": 0,
      "source": 6
    },
    {
      "sampler": 0,
      "source": 7
    },
    {
      "sampler": 0,
      "source": 8
    },
    {
      "sampler": 0,
      "source": 9
    },
    {
      "sampler": 0,
      "source": 10
    },
    {
      "sampler": 0,
      "source": 11
    }
  ],
  "images": [
    {
      "mimeType": "image/png",
      "name": "leafs_Emission",
      "uri": "leafs_Emission.png"
    },
    {
      "mimeType": "image/png",
      "name": "leafs_Normal",
      "uri": "leafs_Normal.png"
    },
    {
      "mimeType": "image/png",
      "name": "leafs_BaseColor",
      "uri": "leafs_BaseColor.png"
    },
    {
      "mimeType": "image/png",
      "name": "leafs_Metallic-leafs_Roughness.",
      "uri": "leafs_Metallic-leafs_Roughness..png"
    },
    {
      "mimeType": "image/png",
      "name": "orange_Emission",
      "uri": "orange_Emission.png"
    },
    {
      "mimeType": "image/png",
      "name": "orange_Normal",
      "uri": "orange_Normal.png"
    },
    {
      "mimeType": "image/png",
      "name": "orange_BaseColor",
      "uri": "orange_BaseColor.png"
    },
    {
      "mimeType": "image/png",
      "name": "orange_Metallic-orange_Roughness",
      "uri": "orange_Metallic-orange_Roughness.png"
    },
    {
      "mimeType": "image/png",
      "name": "brim_Emission",
      "uri": "brim_Emission.png"
    },
    {
      "mimeType": "image/png",
      "name": "brim_Normal",
      "uri": "brim_Normal.png"
    },
    {
      "mimeType": "image/png",
      "name": "brim_BaseColor-brim_Alpha",
      "uri": "brim_BaseColor-brim_Alpha.png"
    },
    {
      "mimeType": "image/png",
      "name": "brim_Metallic-brim_Roughness",
      "uri": "brim_Metallic-brim_Roughness.png"
    }
  ],
  "accessors": [
    {
      "bufferView": 0,
      "componentType": 5126,
      "count": 1405,
      "max": [
        0.5182586908340454,
        1.6639283895492554,
        0.3581000864505768
      ],
      "min": [
        0.21484375,
        1.2683203220367432,
        -0.14328962564468384
      ],
      "type": "VEC3",
      "byteOffset": 0
    },
    {
      "bufferView": 1,
      "componentType": 5126,
      "count": 1405,
      "type": "VEC3",
      "byteOffset": 0
    },
    {
      "bufferView": 2,
      "componentType": 5126,
      "count": 1405,
      "type": "VEC2",
      "byteOffset": 0
    },
    {
      "bufferView": 3,
      "componentType": 5123,
      "count": 7296,
      "type": "SCALAR",
      "byteOffset": 0
    },
    {
      "bufferView": 4,
      "componentType": 5126,
      "count": 781,
      "max": [
        0.5175585746765137,
        1.6209393739700317,
        0.31597352027893066
      ],
      "min": [
        -0.5634041428565979,
        1.2051416635513306,
        -0.4740721881389618
      ],
      "type": "VEC3",
      "byteOffset": 0
    },
    {
      "bufferView": 5,
      "componentType": 5126,
      "count": 781,
      "type": "VEC3",
      "byteOffset": 0
    },
    {
      "bufferView": 6,
      "componentType": 5126,
      "count": 781,
      "type": "VEC2",
      "byteOffset": 0
    },
    {
      "bufferView": 7,
      "componentType": 5123,
      "count": 4020,
      "type": "SCALAR",
      "byteOffset": 0
    },
    {
      "bufferView": 8,
      "componentType": 5126,
      "count": 488,
      "max": [
        0.47884315252304077,
        1.2525407075881958,
        0.3314652740955353
      ],
      "min": [
        -0.4616667628288269,
        1.1756995916366577,
        -0.476591020822525
      ],
      "type": "VEC3",
      "byteOffset": 0
    },
    {
      "bufferView": 9,
      "componentType": 5126,
      "count": 488,
      "type": "VEC3",
      "byteOffset": 0
    },
    {
      "bufferView": 10,
      "componentType": 5126,
      "count": 488,
      "type": "VEC2",
      "byteOffset": 0
    },
    {
      "bufferView": 11,
      "componentType": 5123,
      "count": 1392,
      "type": "SCALAR",
      "byteOffset": 0
    }
  ],
  "bufferViews": [
    {
      "buffer": 0,
      "byteLength": 16860,
      "byteOffset": 0,
      "target": 34962,
      "byteStride": 12
    },
    {
      "buffer": 0,
      "byteLength": 16860,
      "byteOffset": 16864,
      "target": 34962,
      "byteStride": 12
    },
    {
      "buffer": 0,
      "byteLength": 11240,
      "byteOffset": 33728,
      "target": 34962,
      "byteStride": 8
    },
    {
      "buffer": 0,
      "byteLength": 14592,
      "byteOffset": 44968,
      "target": 34963
    },
    {
      "buffer": 0,
      "byteLength": 9372,
      "byteOffset": 59560,
      "target": 34962,
      "byteStride": 12
    },
    {
      "buffer": 0,
      "byteLength": 9372,
      "byteOffset": 68936,
      "target": 34962,
      "byteStride": 12
    },
    {
      "buffer": 0,
      "byteLength": 6248,
      "byteOffset": 78312,
      "target": 34962,
      "byteStride": 8
    },
    {
      "buffer": 0,
      "byteLength": 8040,
      "byteOffset": 84560,
      "target": 34963
    },
    {
      "buffer": 0,
      "byteLength": 5856,
      "byteOffset": 92600,
      "target": 34962,
      "byteStride": 12
    },
    {
      "buffer": 0,
      "byteLength": 5856,
      "byteOffset": 98456,
      "target": 34962,
      "byteStride": 12
    },
    {
      "buffer": 0,
      "byteLength": 3904,
      "byteOffset": 104312,
      "target": 34962,
      "byteStride": 8
    },
    {
      "buffer": 0,
      "byteLength": 2784,
      "byteOffset": 108216,
      "target": 34963
    }
  ],
  "samplers": [
    {
      "magFilter": 9729,
      "minFilter": 9987,
      "wrapS": 10497,
      "wrapT": 10497
    }
  ],
  "buffers": [
    {
      "name": "Orange_Berret",
      "byteLength": 111000,
      "uri": "Orange_Berret.bin"
    }
  ]
}
