{
  "asset": {
    "generator": "Khronos glTF Blender I/O v4.1.62",
    "version": "2.0"
  },
  "extensionsUsed": [
    "KHR_materials_emissive_strength"
  ],
  "scene": 0,
  "scenes": [
    {
      "name": "Scene",
      "nodes": [
        0
      ]
    }
  ],
  "nodes": [
    {
      "mesh": 0,
      "name": "Halo"
    }
  ],
  "materials": [
    {
      "doubleSided": true,
      "emissiveFactor": [
        0.8227446675300598,
        1,
        0
      ],
      "extensions": {
        "KHR_materials_emissive_strength": {
          "emissiveStrength": 5.999999523162842
        }
      },
      "name": "Material.033",
      "pbrMetallicRoughness": {
        "baseColorFactor": [
          0.7962639331817627,
          0.8000000715255737,
          0,
          1
        ],
        "metallicFactor": 0,
        "roughnessFactor": 0.5
      },
      "alphaMode": "OPAQUE"
    }
  ],
  "meshes": [
    {
      "name": "BezierCircle.004",
      "primitives": [
        {
          "attributes": {
            "POSITION": 0,
            "NORMAL": 1,
            "TEXCOORD_0": 2
          },
          "indices": 3,
          "material": 0,
          "mode": 4
        }
      ]
    }
  ],
  "accessors": [
    {
      "bufferView": 0,
      "componentType": 5126,
      "count": 637,
      "max": [
        0.4564015567302704,
        1.6833820343017578,
        0.38675379753112793
      ],
      "min": [
        -0.3548736572265625,
        1.3758974075317383,
        -0.4229275584220886
      ],
      "type": "VEC3",
      "byteOffset": 0
    },
    {
      "bufferView": 1,
      "componentType": 5126,
      "count": 637,
      "type": "VEC3",
      "byteOffset": 0
    },
    {
      "bufferView": 2,
      "componentType": 5126,
      "count": 637,
      "type": "VEC2",
      "byteOffset": 0
    },
    {
      "bufferView": 3,
      "componentType": 5123,
      "count": 3456,
      "type": "SCALAR",
      "byteOffset": 0
    }
  ],
  "bufferViews": [
    {
      "buffer": 0,
      "byteLength": 7644,
      "byteOffset": 0,
      "target": 34962,
      "byteStride": 12
    },
    {
      "buffer": 0,
      "byteLength": 7644,
      "byteOffset": 7648,
      "target": 34962,
      "byteStride": 12
    },
    {
      "buffer": 0,
      "byteLength": 5096,
      "byteOffset": 15296,
      "target": 34962,
      "byteStride": 8
    },
    {
      "buffer": 0,
      "byteLength": 6912,
      "byteOffset": 20392,
      "target": 34963
    }
  ],
  "buffers": [
    {
      "name": "Halo",
      "byteLength": 27304,
      "uri": "Halo.bin"
    }
  ]
}
