{
  "asset": {
    "generator": "Khronos glTF Blender I/O v4.1.62",
    "version": "2.0"
  },
  "scene": 0,
  "scenes": [
    {
      "name": "Scene",
      "nodes": [
        0
      ]
    }
  ],
  "nodes": [
    {
      "mesh": 0,
      "name": "VW_Saturn"
    }
  ],
  "materials": [
    {
      "doubleSided": true,
      "name": "vw",
      "normalTexture": {
        "index": 0,
        "texCoord": 0
      },
      "pbrMetallicRoughness": {
        "baseColorTexture": {
          "index": 1,
          "texCoord": 0
        },
        "metallicFactor": 0,
        "baseColorFactor": [
          1,
          1,
          1,
          1
        ],
        "roughnessFactor": 1
      },
      "emissiveFactor": [
        0,
        0,
        0
      ],
      "alphaMode": "OPAQUE"
    }
  ],
  "meshes": [
    {
      "name": "hair.024",
      "primitives": [
        {
          "attributes": {
            "POSITION": 0,
            "NORMAL": 1,
            "TEXCOORD_0": 2
          },
          "indices": 3,
          "material": 0,
          "mode": 4
        }
      ]
    }
  ],
  "textures": [
    {
      "sampler": 0,
      "source": 0
    },
    {
      "sampler": 0,
      "source": 1
    }
  ],
  "images": [
    {
      "mimeType": "image/png",
      "name": "DefaultMaterial_Normal",
      "uri": "DefaultMaterial_Normal.png"
    },
    {
      "mimeType": "image/png",
      "name": "DefaultMaterial_BaseColor",
      "uri": "DefaultMaterial_BaseColor.png"
    }
  ],
  "accessors": [
    {
      "bufferView": 0,
      "componentType": 5126,
      "count": 1908,
      "max": [
        0.6846824288368225,
        1.7371275424957275,
        0.36236363649368286
      ],
      "min": [
        -0.722701370716095,
        0.2984585464000702,
        -0.5321080088615417
      ],
      "type": "VEC3",
      "byteOffset": 0
    },
    {
      "bufferView": 1,
      "componentType": 5126,
      "count": 1908,
      "type": "VEC3",
      "byteOffset": 0
    },
    {
      "bufferView": 2,
      "componentType": 5126,
      "count": 1908,
      "type": "VEC2",
      "byteOffset": 0
    },
    {
      "bufferView": 3,
      "componentType": 5123,
      "count": 9744,
      "type": "SCALAR",
      "byteOffset": 0
    }
  ],
  "bufferViews": [
    {
      "buffer": 0,
      "byteLength": 22896,
      "byteOffset": 0,
      "target": 34962,
      "byteStride": 12
    },
    {
      "buffer": 0,
      "byteLength": 22896,
      "byteOffset": 22896,
      "target": 34962,
      "byteStride": 12
    },
    {
      "buffer": 0,
      "byteLength": 15264,
      "byteOffset": 45792,
      "target": 34962,
      "byteStride": 8
    },
    {
      "buffer": 0,
      "byteLength": 19488,
      "byteOffset": 61056,
      "target": 34963
    }
  ],
  "samplers": [
    {
      "magFilter": 9729,
      "minFilter": 9987,
      "wrapS": 10497,
      "wrapT": 10497
    }
  ],
  "buffers": [
    {
      "name": "VW_Saturn",
      "byteLength": 80544,
      "uri": "VW_Saturn.bin"
    }
  ]
}
