{
  "asset": {
    "generator": "Khronos glTF Blender I/O v4.1.62",
    "version": "2.0"
  },
  "scene": 0,
  "scenes": [
    {
      "name": "Scene",
      "nodes": [
        0
      ]
    }
  ],
  "nodes": [
    {
      "mesh": 0,
      "name": "White_Cowboy_Hat"
    }
  ],
  "materials": [
    {
      "doubleSided": true,
      "emissiveFactor": [
        1,
        1,
        1
      ],
      "emissiveTexture": {
        "index": 0,
        "texCoord": 0
      },
      "name": "cowboyhat",
      "normalTexture": {
        "index": 1,
        "texCoord": 0
      },
      "pbrMetallicRoughness": {
        "baseColorTexture": {
          "index": 2,
          "texCoord": 0
        },
        "metallicRoughnessTexture": {
          "index": 3,
          "texCoord": 0
        },
        "baseColorFactor": [
          1,
          1,
          1,
          1
        ],
        "metallicFactor": 1,
        "roughnessFactor": 1
      },
      "alphaMode": "OPAQUE"
    },
    {
      "doubleSided": true,
      "emissiveFactor": [
        1,
        1,
        1
      ],
      "emissiveTexture": {
        "index": 4,
        "texCoord": 0
      },
      "name": "detailCowboyHat",
      "normalTexture": {
        "index": 5,
        "texCoord": 0
      },
      "pbrMetallicRoughness": {
        "baseColorTexture": {
          "index": 6,
          "texCoord": 0
        },
        "metallicRoughnessTexture": {
          "index": 7,
          "texCoord": 0
        },
        "baseColorFactor": [
          1,
          1,
          1,
          1
        ],
        "metallicFactor": 1,
        "roughnessFactor": 1
      },
      "alphaMode": "OPAQUE"
    }
  ],
  "meshes": [
    {
      "name": "mesh.006",
      "primitives": [
        {
          "attributes": {
            "POSITION": 0,
            "NORMAL": 1,
            "TEXCOORD_0": 2
          },
          "indices": 3,
          "material": 0,
          "mode": 4
        },
        {
          "attributes": {
            "POSITION": 4,
            "NORMAL": 5,
            "TEXCOORD_0": 6
          },
          "indices": 7,
          "material": 1,
          "mode": 4
        }
      ]
    }
  ],
  "textures": [
    {
      "sampler": 0,
      "source": 0
    },
    {
      "sampler": 0,
      "source": 1
    },
    {
      "sampler": 0,
      "source": 2
    },
    {
      "sampler": 0,
      "source": 3
    },
    {
      "sampler": 0,
      "source": 4
    },
    {
      "sampler": 0,
      "source": 5
    },
    {
      "sampler": 0,
      "source": 6
    },
    {
      "sampler": 0,
      "source": 7
    }
  ],
  "images": [
    {
      "mimeType": "image/png",
      "name": "cowboyhat_Emission",
      "uri": "cowboyhat_Emission.png"
    },
    {
      "mimeType": "image/png",
      "name": "cowboyhat_Normal",
      "uri": "cowboyhat_Normal.png"
    },
    {
      "mimeType": "image/png",
      "name": "cowboyhat_BaseColor",
      "uri": "cowboyhat_BaseColor.png"
    },
    {
      "mimeType": "image/png",
      "name": "cowboyhat_Metallic-cowboyhat_Roughness",
      "uri": "cowboyhat_Metallic-cowboyhat_Roughness.png"
    },
    {
      "mimeType": "image/png",
      "name": "detailCowboyHat_Emission",
      "uri": "detailCowboyHat_Emission.png"
    },
    {
      "mimeType": "image/png",
      "name": "detailCowboyHat_Normal",
      "uri": "detailCowboyHat_Normal.png"
    },
    {
      "mimeType": "image/png",
      "name": "detailCowboyHat_BaseColor",
      "uri": "detailCowboyHat_BaseColor.png"
    },
    {
      "mimeType": "image/png",
      "name": "detailCowboyHat_Metallic-detailCowboyHat_Roughness",
      "uri": "detailCowboyHat_Metallic-detailCowboyHat_Roughness.png"
    }
  ],
  "accessors": [
    {
      "bufferView": 0,
      "componentType": 5126,
      "count": 3831,
      "max": [
        0.6395615935325623,
        1.7040390968322754,
        0.6228200793266296
      ],
      "min": [
        -0.6389063596725464,
        1.0435378551483154,
        -0.7318746447563171
      ],
      "type": "VEC3",
      "byteOffset": 0
    },
    {
      "bufferView": 1,
      "componentType": 5126,
      "count": 3831,
      "type": "VEC3",
      "byteOffset": 0
    },
    {
      "bufferView": 2,
      "componentType": 5126,
      "count": 3831,
      "type": "VEC2",
      "byteOffset": 0
    },
    {
      "bufferView": 3,
      "componentType": 5123,
      "count": 19044,
      "type": "SCALAR",
      "byteOffset": 0
    },
    {
      "bufferView": 4,
      "componentType": 5126,
      "count": 456,
      "max": [
        0.4768740236759186,
        1.2324373722076416,
        0.3535235524177551
      ],
      "min": [
        -0.4781380593776703,
        1.1059575080871582,
        -0.4711640775203705
      ],
      "type": "VEC3",
      "byteOffset": 0
    },
    {
      "bufferView": 5,
      "componentType": 5126,
      "count": 456,
      "type": "VEC3",
      "byteOffset": 0
    },
    {
      "bufferView": 6,
      "componentType": 5126,
      "count": 456,
      "type": "VEC2",
      "byteOffset": 0
    },
    {
      "bufferView": 7,
      "componentType": 5123,
      "count": 1728,
      "type": "SCALAR",
      "byteOffset": 0
    }
  ],
  "bufferViews": [
    {
      "buffer": 0,
      "byteLength": 45972,
      "byteOffset": 0,
      "target": 34962,
      "byteStride": 12
    },
    {
      "buffer": 0,
      "byteLength": 45972,
      "byteOffset": 45976,
      "target": 34962,
      "byteStride": 12
    },
    {
      "buffer": 0,
      "byteLength": 30648,
      "byteOffset": 91952,
      "target": 34962,
      "byteStride": 8
    },
    {
      "buffer": 0,
      "byteLength": 38088,
      "byteOffset": 122600,
      "target": 34963
    },
    {
      "buffer": 0,
      "byteLength": 5472,
      "byteOffset": 160688,
      "target": 34962,
      "byteStride": 12
    },
    {
      "buffer": 0,
      "byteLength": 5472,
      "byteOffset": 166160,
      "target": 34962,
      "byteStride": 12
    },
    {
      "buffer": 0,
      "byteLength": 3648,
      "byteOffset": 171632,
      "target": 34962,
      "byteStride": 8
    },
    {
      "buffer": 0,
      "byteLength": 3456,
      "byteOffset": 175280,
      "target": 34963
    }
  ],
  "samplers": [
    {
      "magFilter": 9729,
      "minFilter": 9987,
      "wrapS": 10497,
      "wrapT": 10497
    }
  ],
  "buffers": [
    {
      "name": "White_Cowboy_Hat",
      "byteLength": 178736,
      "uri": "White_Cowboy_Hat.bin"
    }
  ]
}
